/vscmnt/brussel_pixiu_data/_data_brussel/112/vsc11236/PredSimResults/SUBJ07opt3D/expIG/worker_12.mot
version=1
nRows=9
nColumns=50
inDegrees=yes
endheader
                time	         pelvis_tilt	         pelvis_list	     pelvis_rotation	           pelvis_tx	           pelvis_ty	           pelvis_tz	       hip_flexion_r	     hip_adduction_r	      hip_rotation_r	        knee_angle_r	       ankle_angle_r	         mtp_angle_r	       hip_flexion_l	     hip_adduction_l	      hip_rotation_l	        knee_angle_l	       ankle_angle_l	         mtp_angle_l	    lumbar_extension	      lumbar_bending	     lumbar_rotation	 ercspn_r/activation	 intobl_r/activation	 extobl_r/activation	    abd_r/activation	    add_r/activation	hamstrings_r/activation	bifemsh_r/activation	glut_max_r/activation	iliopsoas_r/activation	rect_fem_r/activation	  vasti_r/activation	gastroc_r/activation	 soleus_r/activation	tib_ant_r/activation	 ercspn_l/activation	 intobl_l/activation	 extobl_l/activation	    abd_l/activation	    add_l/activation	hamstrings_l/activation	bifemsh_l/activation	glut_max_l/activation	iliopsoas_l/activation	rect_fem_l/activation	  vasti_l/activation	gastroc_l/activation	 soleus_l/activation	tib_ant_l/activation	
          0.00000000	         -6.63157270	         -1.98935100	          6.22401062	          0.00000000	          0.84363676	         -0.00623656	         33.60535149	         -0.11742277	         -2.18015032	         -8.14491488	          5.92465817	          0.34950594	        -14.13789319	         -1.76493094	          2.63730679	        -12.36505069	          1.45376614	         35.05812069	        -13.63809516	          2.04347482	         -4.70686994	          0.15111595	          0.13321803	          0.00999999	          0.05751714	          0.15810570	          0.21971643	          0.28141045	          0.05420762	          0.05593701	          0.00999999	          0.00999999	          0.00999999	          0.00999999	          0.61423648	          0.11631512	          0.00999999	          0.00999999	          0.01664387	          0.07894112	          0.01945272	          0.10291874	          0.01595965	          0.22556669	          0.17016982	          0.02524078	          0.26381615	          0.18324952	          0.00999999	
          0.00876046	         -6.58702531	         -1.90094644	          6.26569411	          0.01764166	          0.84160856	         -0.00589676	         33.41431634	          0.02386560	         -1.79551374	         -9.76355759	          5.25092711	          0.33851566	        -15.26355629	         -1.80656825	          2.37604280	        -12.36270075	          0.04886469	         35.73145102	        -13.40694939	          2.21523403	         -4.88113974	          0.13186295	          0.11624531	          0.00999999	          0.05018914	          0.18817971	          0.19172334	          0.24555720	          0.15411000	          0.04881032	          0.01000000	          0.01000000	          0.01481589	          0.01313332	          0.55860916	          0.12151953	          0.00999999	          0.01000000	          0.01452335	          0.12173156	          0.02707841	          0.10051795	          0.01392630	          0.39212919	          0.14848924	          0.02202496	          0.23020451	          0.16379115	          0.00999999	
          0.01752093	         -6.54218927	         -1.80509182	          6.26885392	          0.03517016	          0.83960158	         -0.00554715	         33.22739623	          0.14424876	         -1.41548553	        -11.63611965	          4.76254932	          0.30916807	        -16.07831296	         -1.81201617	          2.08617427	        -12.94346036	         -1.19080875	         36.10171754	        -13.20352639	          2.39126609	         -5.02538719	          0.12465504	          0.10143502	          0.00999999	          0.13611796	          0.21881103	          0.16729673	          0.21427186	          0.20667436	          0.04259162	          0.00999999	          0.00999999	          0.01292827	          0.01146007	          0.72134960	          0.15768142	          0.00999999	          0.01000000	          0.01267299	          0.11209937	          0.02363590	          0.08771184	          0.01215201	          0.51763714	          0.12957089	          0.01921886	          0.20087518	          0.14292325	          0.00999999	
          0.02628139	         -6.49914724	         -1.70788268	          6.23333905	          0.05240918	          0.83782307	         -0.00515963	         33.05983507	          0.26682595	         -1.08918570	        -13.47244496	          4.15687891	          0.28093019	        -16.49173246	         -1.79220066	          1.78514414	        -14.23125044	         -2.28966504	         36.13541752	        -13.05064799	          2.57205040	         -5.13619663	          0.15390615	          0.08851164	          0.00999999	          0.20143746	          0.25391543	          0.14598220	          0.18697244	          0.26650214	          0.03716521	          0.00999999	          0.00999999	          0.01128114	          0.00999999	          0.77853331	          0.19798778	          0.00999999	          0.01000000	          0.01105839	          0.11580668	          0.02535950	          0.07653689	          0.01060378	          0.57759629	          0.11306285	          0.01677027	          0.17528258	          0.12471404	          0.00999999	
          0.03504185	         -6.45662534	         -1.61625549	          6.16395691	          0.06925435	          0.83643730	         -0.00474281	         32.96907538	          0.39748459	         -0.81558640	        -15.43828532	          3.79854867	          0.23996596	        -16.45749742	         -1.75877480	          1.49587681	        -16.26893192	         -3.34093654	         35.83759405	        -12.95770723	          2.76435197	         -5.21197862	          0.18207205	          0.07723477	          0.00999999	          0.26092037	          0.27030787	          0.12738326	          0.16315112	          0.31759221	          0.03243016	          0.00999999	          0.02598660	          0.00999999	          0.00999999	          0.75653743	          0.27230673	          0.00999999	          0.01000000	          0.00999999	          0.11535977	          0.02597702	          0.07444229	          0.00999999	          0.50400736	          0.09865802	          0.01463365	          0.15295061	          0.10882478	          0.00999999	
          0.04380232	         -6.41358054	         -1.53096875	          6.06127497	          0.08566132	          0.83559224	         -0.00431193	         32.96385575	          0.53230342	         -0.59989224	        -17.57785781	          3.87495603	          0.20299631	        -15.97113425	         -1.71512307	          1.22240420	        -19.01239828	         -4.49393394	         35.19930671	        -12.92237621	          2.96654266	         -5.25018846	          0.20929374	          0.06739463	          0.00999999	          0.28921938	          0.29454297	          0.11115393	          0.14236477	          0.34338905	          0.02829838	          0.01000000	          0.05050912	          0.00999999	          0.00999999	          0.66015040	          0.32702926	          0.00999999	          0.01000000	          0.00999999	          0.13511775	          0.02668676	          0.09488628	          0.00999999	          0.43979404	          0.08608844	          0.01276924	          0.13346385	          0.09495990	          0.00999999	
          0.05256278	         -6.37028769	         -1.44677021	          5.92548670	          0.10166899	          0.83534326	         -0.00388059	         32.98081254	          0.66852754	         -0.42533606	        -19.75621892	          4.27310554	          0.17660568	        -15.06055786	         -1.65660262	          0.97036636	        -22.35871592	         -5.90470351	         34.19031442	        -12.92924416	          3.16882316	         -5.25116036	          0.19809823	          0.05880818	          0.00999999	          0.29402635	          0.31369945	          0.09699230	          0.12422671	          0.34345166	          0.02469301	          0.01000000	          0.08194658	          0.00999999	          0.00999999	          0.57604359	          0.37435583	          0.00999999	          0.00999999	          0.00999999	          0.14843699	          0.02488598	          0.09144811	          0.00999999	          0.38376185	          0.07512030	          0.01114237	          0.11645982	          0.08286149	          0.00999999	
          0.06132324	         -6.32825639	         -1.35820324	          5.75795795	          0.11735817	          0.83565824	         -0.00344073	         32.92280832	          0.80802082	         -0.25188679	        -21.81555204	          5.07095581	          0.17298578	        -13.77672005	         -1.57918044	          0.75713148	        -26.16283276	         -7.67661730	         32.72153987	        -12.95883078	          3.35625996	         -5.22128589	          0.17285942	          0.05131569	          0.00999999	          0.31492329	          0.31988486	          0.08463495	          0.10839954	          0.31903291	          0.02154698	          0.01000003	          0.13468041	          0.01000000	          0.01000000	          0.50265245	          0.39942856	          0.00999999	          0.00999999	          0.00999999	          0.15619768	          0.02171537	          0.07979712	          0.00999999	          0.33486847	          0.07526706	          0.00999999	          0.10162220	          0.07230447	          0.03004941	
          0.07008370	         -6.29127646	         -1.27114076	          5.56321023	          0.13276354	          0.83648870	         -0.00299069	         32.70479711	          0.96247975	         -0.03615220	        -23.59864770	          6.23733320	          0.23879677	        -12.17826616	         -1.48139307	          0.61759286	        -30.28672442	         -9.61615777	         30.44021368	        -12.99898222	          3.52811304	         -5.16680322	          0.15083618	          0.04477779	          0.00999999	          0.34814385	          0.32155183	          0.07385201	          0.09458884	          0.30260080	          0.01880178	          0.00999999	          0.13939328	          0.01146003	          0.01136033	          0.43861175	          0.38925358	          0.04126401	          0.00999999	          0.00999999	          0.13629723	          0.01894872	          0.06963053	          0.00999999	          0.29220437	          0.16997728	          0.00999999	          0.08867497	          0.06309249	          0.20005496	
